# xmcd
# 
# Track frame offsets:
#     150
#     13523
#     34805
#     53346
#     71797
#     103122
#     121343
#     141458
#     162743
#     180087
#     202742
#     224316
#     242506
#     258928
#     272165
# 
# Disc length: 4221
# 
# Revision: 1
# Processed by: cddbd v1.5.2PL0 Copyright (c) Steve Scherf et al.
# Submitted via: fre:ac v1.0.31
# 
DISCID=d1107b0f
DTITLE=Various Artist - Latina fever volume 3 [CD1)
DYEAR=2004
DGENRE=Salsa
TTITLE0=Tito Puente - Ran Kan Kan
TTITLE1=Pedro Conga y su Orquestra Internacional - Eso me gusta
TTITLE2=Los Van Van - Esto te pone la cabeza mala
TTITLE3=Johnny Ventura - Alla se quedo
TTITLE4=Eddie Palmieri and Ismael Quintana - Puerto Rico
TTITLE5=Salsa Fever - Razones
TTITLE6=Puerto Rican Power - Amar no se puede apurar
TTITLE7=Ng La Banda - Los sitios enteros
TTITLE8=Yuri Buenaventura - Patrice Lumumba
TTITLE9=Adalberto Alvarez - Si no fuera por las mujeres
TTITLE10=Paolo FG - Pasta y tostones
TTITLE11=Anthony Cruz - Ven
TTITLE12=Omara Portuondo - Disco azucar
TTITLE13=Orquesta Broadway - La negra furlo
TTITLE14=Candido - Jingo (bonus track)
EXTD=
EXTT0=
EXTT1=
EXTT2=
EXTT3=
EXTT4=
EXTT5=
EXTT6=
EXTT7=
EXTT8=
EXTT9=
EXTT10=
EXTT11=
EXTT12=
EXTT13=
EXTT14=
PLAYORDER=
